<svg width="14" height="14" viewBox="0 0 14 14" fill="none" xmlns="http://www.w3.org/2000/svg">
<g clip-path="url(#clip0_558_5756)">
<path d="M11.375 2.1875H2.625C2.38338 2.1875 2.1875 2.38338 2.1875 2.625V11.375C2.1875 11.6166 2.38338 11.8125 2.625 11.8125H11.375C11.6166 11.8125 11.8125 11.6166 11.8125 11.375V2.625C11.8125 2.38338 11.6166 2.1875 11.375 2.1875Z" stroke="#D0D5DD" stroke-linecap="round" stroke-linejoin="round"/>
<path d="M9.625 1.3125V3.0625" stroke="#D0D5DD" stroke-linecap="round" stroke-linejoin="round"/>
<path d="M4.375 1.3125V3.0625" stroke="#D0D5DD" stroke-linecap="round" stroke-linejoin="round"/>
<path d="M2.1875 4.8125H11.8125" stroke="#D0D5DD" stroke-linecap="round" stroke-linejoin="round"/>
<path d="M4.8125 7L5.6875 6.5625V10.0625" stroke="#D0D5DD" stroke-linecap="round" stroke-linejoin="round"/>
<path d="M7.55453 7C7.6144 6.89692 7.69471 6.80715 7.79052 6.73622C7.88633 6.66528 7.99562 6.61467 8.11169 6.5875C8.22776 6.56032 8.34816 6.55714 8.46551 6.57817C8.58285 6.5992 8.69466 6.64398 8.79407 6.70977C8.89348 6.77556 8.9784 6.86097 9.04362 6.96076C9.10884 7.06055 9.15298 7.17261 9.17333 7.29007C9.19368 7.40753 9.18982 7.52791 9.16197 7.64383C9.13413 7.75974 9.08289 7.86874 9.01141 7.96414L7.4375 10.0625H9.1875" stroke="#D0D5DD" stroke-linecap="round" stroke-linejoin="round"/>
</g>
<defs>
<clipPath id="clip0_558_5756">
<rect width="14" height="14" fill="white"/>
</clipPath>
</defs>
</svg>
