<svg width="35" height="36" viewBox="0 0 35 36" fill="none" xmlns="http://www.w3.org/2000/svg">
<rect y="0.5" width="35" height="35" rx="12" fill="white"/>
<path d="M8 16V14C8 13.4696 8.21071 12.9609 8.58579 12.5858C8.96086 12.2107 9.46957 12 10 12H12M8 16C9.333 16 12 15.2 12 12M8 16V20M12 12H22M8 20V22C8 22.5304 8.21071 23.0391 8.58579 23.4142C8.96086 23.7893 9.46957 24 10 24H12M8 20C9.333 20 12 20.8 12 24M26 16V14C26 13.4696 25.7893 12.9609 25.4142 12.5858C25.0391 12.2107 24.5304 12 24 12H22M26 16C24.667 16 22 15.2 22 12M26 16V20M26 20V22C26 22.5304 25.7893 23.0391 25.4142 23.4142C25.0391 23.7893 24.5304 24 24 24H22M26 20C24.667 20 22 20.8 22 24M22 24H12" stroke="#BA24D5" stroke-width="2" stroke-linecap="round" stroke-linejoin="round"/>
<path d="M17 20C18.1046 20 19 19.1046 19 18C19 16.8954 18.1046 16 17 16C15.8954 16 15 16.8954 15 18C15 19.1046 15.8954 20 17 20Z" stroke="#BA24D5" stroke-width="2" stroke-linecap="round" stroke-linejoin="round"/>
</svg>
