<svg width="35" height="36" viewBox="0 0 35 36" fill="none" xmlns="http://www.w3.org/2000/svg">
<rect y="0.5" width="35" height="35" rx="12" fill="white"/>
<path d="M17 27.5C19.5196 27.5 21.9359 26.4991 23.7175 24.7175C25.4991 22.9359 26.5 20.5196 26.5 18C26.5 15.4804 25.4991 13.0641 23.7175 11.2825C21.9359 9.50089 19.5196 8.5 17 8.5C14.4804 8.5 12.0641 9.50089 10.2825 11.2825C8.50089 13.0641 7.5 15.4804 7.5 18C7.5 20.5196 8.50089 22.9359 10.2825 24.7175C12.0641 26.4991 14.4804 27.5 17 27.5Z" stroke="#BA24D5" stroke-width="1.5" stroke-linecap="round" stroke-linejoin="round"/>
<path d="M14 20.433C14.0638 21.1689 14.4138 21.8505 14.9748 22.3311C15.5358 22.8116 16.263 23.0529 17 23.003C19.42 23.003 20 21.613 20 20.433C20 19.253 19 18.003 17 18.003C15 18.003 14 17.213 14 15.603C14.0186 15.2326 14.112 14.8698 14.2745 14.5365C14.437 14.2031 14.6652 13.906 14.9455 13.6631C15.2257 13.4203 15.5522 13.2366 15.9053 13.1231C16.2583 13.0097 16.6307 12.9688 17 13.003C17.7375 12.9712 18.4592 13.2229 19.0171 13.7064C19.5749 14.1899 19.9266 14.8685 20 15.603M17 24.5V23.2M17 11.5V12.999" stroke="#BA24D5" stroke-width="1.5" stroke-linecap="round" stroke-linejoin="round"/>
</svg>
