<svg width="35" height="36" viewBox="0 0 35 36" fill="none" xmlns="http://www.w3.org/2000/svg">
<rect y="0.5" width="35" height="35" rx="12" fill="white"/>
<path d="M23.8437 13.875C23.7064 15.7814 22.2922 17.25 20.75 17.25C19.2078 17.25 17.7912 15.7819 17.6562 13.875C17.5156 11.8917 18.8923 10.5 20.75 10.5C22.6076 10.5 23.9844 11.9278 23.8437 13.875Z" stroke="#BA24D5" stroke-width="2" stroke-linecap="round" stroke-linejoin="round"/>
<path d="M20.75 20.25C17.6952 20.25 14.7575 21.7673 14.0216 24.7223C13.9241 25.1133 14.1692 25.5 14.5709 25.5H26.9295C27.3312 25.5 27.575 25.1133 27.4789 24.7223C26.743 21.72 23.8053 20.25 20.75 20.25Z" stroke="#BA24D5" stroke-width="2" stroke-miterlimit="10"/>
<path d="M14.375 14.7159C14.2653 16.2384 13.1225 17.4375 11.8906 17.4375C10.6588 17.4375 9.51408 16.2389 9.40627 14.7159C9.29424 13.132 10.4066 12 11.8906 12C13.3747 12 14.4871 13.1611 14.375 14.7159Z" stroke="#BA24D5" stroke-width="2" stroke-linecap="round" stroke-linejoin="round"/>
<path d="M14.6562 20.3434C13.8101 19.9557 12.8783 19.8066 11.8906 19.8066C9.4531 19.8066 7.10466 21.0184 6.51638 23.3785C6.43903 23.6907 6.63497 23.9996 6.9556 23.9996H12.2187" stroke="#BA24D5" stroke-width="2" stroke-miterlimit="10" stroke-linecap="round"/>
</svg>
