<svg width="35" height="36" viewBox="0 0 35 36" fill="none" xmlns="http://www.w3.org/2000/svg">
<rect y="0.5" width="35" height="35" rx="12" fill="white"/>
<path d="M21 19L16.85 14.95C16.3333 14.45 15.896 13.896 15.538 13.288C15.18 12.68 15.0007 12.0173 15 11.3C15 10.3833 15.321 9.60434 15.963 8.963C16.605 8.32167 17.384 8.00067 18.3 8C18.8333 8 19.3333 8.11267 19.8 8.338C20.2667 8.56334 20.6667 8.86734 21 9.25C21.3333 8.86667 21.7333 8.56234 22.2 8.337C22.6667 8.11167 23.1667 7.99934 23.7 8C24.6167 8 25.396 8.321 26.038 8.963C26.68 9.605 27.0007 10.384 27 11.3C27 12.0167 26.825 12.6793 26.475 13.288C26.125 13.8967 25.6917 14.4507 25.175 14.95L21 19ZM21 16.2L23.725 13.525C24.0417 13.2083 24.3333 12.8707 24.6 12.512C24.8667 12.1533 25 11.7493 25 11.3C25 10.9333 24.875 10.625 24.625 10.375C24.375 10.125 24.0667 10 23.7 10C23.4667 10 23.2457 10.0457 23.037 10.137C22.8283 10.2283 22.6493 10.366 22.5 10.55L21 12.35L19.5 10.55C19.35 10.3667 19.171 10.229 18.963 10.137C18.755 10.045 18.534 9.99934 18.3 10C17.9333 10 17.625 10.125 17.375 10.375C17.125 10.625 17 10.9333 17 11.3C17 11.75 17.1333 12.1543 17.4 12.513C17.6667 12.8717 17.9583 13.209 18.275 13.525L21 16.2ZM12 24.5L18.95 26.4L24.9 24.55C24.8167 24.4 24.6957 24.2707 24.537 24.162C24.3783 24.0533 24.1993 23.9993 24 24H18.95C18.5 24 18.1417 23.9833 17.875 23.95C17.6083 23.9167 17.3333 23.85 17.05 23.75L14.725 22.975L15.275 21.025L17.3 21.7C17.5833 21.7833 17.9167 21.85 18.3 21.9C18.6833 21.95 19.25 21.9833 20 22C20 21.8167 19.946 21.6417 19.838 21.475C19.73 21.3083 19.6007 21.2 19.45 21.15L13.6 19H12V24.5ZM6 28V17H13.6C13.7167 17 13.8333 17.0127 13.95 17.038C14.0667 17.0633 14.175 17.0923 14.275 17.125L20.15 19.3C20.7 19.5 21.146 19.85 21.488 20.35C21.83 20.85 22.0007 21.4 22 22H24C24.8333 22 25.5417 22.275 26.125 22.825C26.7083 23.375 27 24.1 27 25V26L19 28.5L12 26.55V28H6ZM8 26H10V19H8V26Z" fill="#BA24D5"/>
</svg>
