<svg width="32" height="32" viewBox="0 0 32 32" fill="none" xmlns="http://www.w3.org/2000/svg">
<circle cx="16" cy="16" r="16" fill="#FBE8FF"/>
<path d="M8.69165 14.1892C8.69165 13.1208 8.90471 12.1269 9.33082 11.2075C9.75693 10.2881 10.3358 9.49445 11.0675 8.82667L11.63 9.43917C10.9783 10.0292 10.4644 10.7306 10.0883 11.5433C9.71221 12.3561 9.52471 13.2381 9.52582 14.1892H8.69165ZM22.475 14.1892C22.475 13.2386 22.2869 12.3539 21.9108 11.535C21.5353 10.7167 21.0217 10.0128 20.37 9.42334L20.9325 8.82667C21.6647 9.49445 22.2436 10.2881 22.6692 11.2075C23.0947 12.1269 23.3075 13.1208 23.3075 14.1892H22.475ZM10.1667 21.6408V20.8075H11.5133V14.205C11.5133 13.1161 11.8578 12.1586 12.5467 11.3325C13.2355 10.5064 14.1089 9.99167 15.1667 9.78834V9.33334C15.1667 9.10389 15.248 8.9075 15.4108 8.74417C15.5736 8.58084 15.77 8.49945 16 8.5C16.23 8.50056 16.4264 8.58195 16.5891 8.74417C16.7519 8.90639 16.8333 9.10278 16.8333 9.33334V9.78834C17.8911 9.99111 18.7644 10.5058 19.4533 11.3325C20.1422 12.1592 20.4867 13.1167 20.4867 14.205V20.8075H21.8333V21.6408H10.1667ZM16 23.8208C15.6272 23.8208 15.3097 23.6894 15.0475 23.4267C14.7853 23.1644 14.6542 22.8469 14.6542 22.4742H17.3458C17.3458 22.8475 17.2147 23.1653 16.9525 23.4275C16.6903 23.6897 16.3728 23.8203 16 23.8192M12.3467 20.8083H19.6542V14.205C19.6542 13.1922 19.2983 12.33 18.5867 11.6183C17.875 10.9067 17.0128 10.5511 16 10.5517C14.9872 10.5522 14.125 10.9078 13.4133 11.6183C12.7017 12.3289 12.3461 13.1911 12.3467 14.205V20.8083Z" fill="#BA24D5"/>
<circle cx="21" cy="6" r="2" fill="#BA24D5"/>
</svg>
