<svg width="26" height="27" viewBox="0 0 26 27" fill="none" xmlns="http://www.w3.org/2000/svg">
<path d="M6 7.87793C5.30777 7.87793 4.63108 7.67266 4.0555 7.28807C3.47993 6.90349 3.03133 6.35686 2.76642 5.71732C2.50152 5.07778 2.4322 4.37405 2.56725 3.69512C2.7023 3.01618 3.03564 2.39254 3.52513 1.90306C4.01461 1.41357 4.63825 1.08023 5.31718 0.945183C5.99612 0.810135 6.69985 0.879446 7.33939 1.14435C7.97893 1.40926 8.52556 1.85786 8.91014 2.43344C9.29473 3.00901 9.5 3.6857 9.5 4.37793C9.5 5.30619 9.13125 6.19643 8.47487 6.85281C7.8185 7.50918 6.92826 7.87793 6 7.87793ZM6 2.62793C5.65388 2.62793 5.31554 2.73057 5.02775 2.92286C4.73997 3.11515 4.51566 3.38846 4.38321 3.70824C4.25076 4.02801 4.2161 4.37987 4.28363 4.71934C4.35115 5.05881 4.51782 5.37063 4.76256 5.61537C5.00731 5.86011 5.31913 6.02678 5.65859 6.09431C5.99806 6.16183 6.34993 6.12717 6.6697 5.99472C6.98947 5.86227 7.26278 5.63797 7.45507 5.35018C7.64736 5.06239 7.75 4.72405 7.75 4.37793C7.75 3.9138 7.56563 3.46868 7.23744 3.14049C6.90925 2.81231 6.46413 2.62793 6 2.62793ZM20 7.87793C19.3078 7.87793 18.6311 7.67266 18.0555 7.28807C17.4799 6.90349 17.0313 6.35686 16.7664 5.71732C16.5015 5.07778 16.4322 4.37405 16.5673 3.69512C16.7023 3.01618 17.0356 2.39254 17.5251 1.90306C18.0146 1.41357 18.6383 1.08023 19.3172 0.945183C19.9961 0.810135 20.6999 0.879446 21.3394 1.14435C21.9789 1.40926 22.5256 1.85786 22.9101 2.43344C23.2947 3.00901 23.5 3.6857 23.5 4.37793C23.5 5.30619 23.1313 6.19643 22.4749 6.85281C21.8185 7.50918 20.9283 7.87793 20 7.87793ZM20 2.62793C19.6539 2.62793 19.3155 2.73057 19.0278 2.92286C18.74 3.11515 18.5157 3.38846 18.3832 3.70824C18.2508 4.02801 18.2161 4.37987 18.2836 4.71934C18.3512 5.05881 18.5178 5.37063 18.7626 5.61537C19.0073 5.86011 19.3191 6.02678 19.6586 6.09431C19.9981 6.16183 20.3499 6.12717 20.6697 5.99472C20.9895 5.86227 21.2628 5.63797 21.4551 5.35018C21.6474 5.06239 21.75 4.72405 21.75 4.37793C21.75 3.9138 21.5656 3.46868 21.2374 3.14049C20.9092 2.81231 20.4641 2.62793 20 2.62793ZM21.75 26.2529H18.25C17.7859 26.2529 17.3408 26.0686 17.0126 25.7404C16.6844 25.4122 16.5 24.9671 16.5 24.5029V18.3779H18.25V24.5029H21.75V16.6279H23.5V11.3779C23.5 11.1459 23.4078 10.9233 23.2437 10.7592C23.0796 10.5951 22.8571 10.5029 22.625 10.5029H17.0075L13 17.5029L8.9925 10.5029H3.375C3.14294 10.5029 2.92038 10.5951 2.75628 10.7592C2.59219 10.9233 2.5 11.1459 2.5 11.3779V16.6279H4.25V24.5029H7.75V18.3779H9.5V24.5029C9.5 24.9671 9.31563 25.4122 8.98744 25.7404C8.65925 26.0686 8.21413 26.2529 7.75 26.2529H4.25C3.78587 26.2529 3.34075 26.0686 3.01256 25.7404C2.68437 25.4122 2.5 24.9671 2.5 24.5029V18.3779C2.03587 18.3779 1.59075 18.1936 1.26256 17.8654C0.934374 17.5372 0.75 17.0921 0.75 16.6279V11.3779C0.75 10.6817 1.02656 10.0141 1.51884 9.52178C2.01113 9.02949 2.67881 8.75293 3.375 8.75293H10.0075L13 14.0029L15.9925 8.75293H22.625C23.3212 8.75293 23.9889 9.02949 24.4812 9.52178C24.9734 10.0141 25.25 10.6817 25.25 11.3779V16.6279C25.25 17.0921 25.0656 17.5372 24.7374 17.8654C24.4092 18.1936 23.9641 18.3779 23.5 18.3779V24.5029C23.5 24.9671 23.3156 25.4122 22.9874 25.7404C22.6592 26.0686 22.2141 26.2529 21.75 26.2529Z" fill="#FCFCFD"/>
</svg>
