<svg width="16" height="16" viewBox="0 0 16 16" fill="none" xmlns="http://www.w3.org/2000/svg">
<path d="M16 12.0004C16 12.4719 15.8127 12.9241 15.4793 13.2575C15.1459 13.5909 14.6937 13.7782 14.2222 13.7782H1.77778C1.30628 13.7782 0.854097 13.5909 0.520699 13.2575C0.187301 12.9241 0 12.4719 0 12.0004V4.00043C0 3.52894 0.187301 3.07675 0.520699 2.74336C0.854097 2.40996 1.30628 2.22266 1.77778 2.22266H14.2222C14.6937 2.22266 15.1459 2.40996 15.4793 2.74336C15.8127 3.07675 16 3.52894 16 4.00043V12.0004Z" fill="#EEEEEE"/>
<path d="M9.52927 5.81512C8.94992 5.40954 8.23318 5.25071 7.53671 5.37356C6.84025 5.49642 6.22112 5.8909 5.8155 6.47023C5.62396 6.76018 5.55315 7.11344 5.61814 7.45481C5.68312 7.79617 5.87877 8.0987 6.16344 8.298C6.44811 8.4973 6.79932 8.57763 7.14232 8.52189C7.48532 8.46615 7.79303 8.27875 7.99994 7.99957C8.10039 7.85613 8.2281 7.73389 8.37579 7.63982C8.52348 7.54574 8.68826 7.48168 8.8607 7.45128C9.03315 7.42088 9.2099 7.42475 9.38085 7.46266C9.55181 7.50058 9.71362 7.57179 9.85705 7.67223C10.0005 7.77268 10.1227 7.90039 10.2168 8.04808C10.3109 8.19577 10.3749 8.36055 10.4053 8.533C10.4357 8.70545 10.4319 8.88219 10.394 9.05315C10.356 9.2241 10.2848 9.38591 10.1844 9.52935C10.3853 9.24246 10.5277 8.91881 10.6035 8.57688C10.6793 8.23496 10.687 7.88145 10.6262 7.53654C10.5653 7.19163 10.4371 6.86209 10.2489 6.56673C10.0607 6.27136 9.81619 6.01597 9.52927 5.81512Z" fill="#C60C30"/>
<path d="M9.85694 7.67337C9.56732 7.47053 9.20899 7.39105 8.86076 7.45239C8.51253 7.51373 8.20293 7.71089 8.00006 8.00048C7.79365 8.28113 7.48562 8.46987 7.14185 8.52636C6.79809 8.58284 6.44586 8.50259 6.1605 8.30275C5.87514 8.10291 5.67929 7.79935 5.61484 7.45698C5.55039 7.11462 5.62245 6.76063 5.81561 6.4707C5.60886 6.75727 5.46112 7.08208 5.38099 7.42624C5.30086 7.7704 5.28993 8.12705 5.34884 8.47548C5.40774 8.8239 5.53531 9.15714 5.72412 9.45583C5.91294 9.75453 6.15924 10.0127 6.4487 10.2154C6.73817 10.4181 7.06503 10.5612 7.41029 10.6364C7.75555 10.7117 8.11233 10.7176 8.45988 10.6537C8.80744 10.5899 9.13884 10.4576 9.43483 10.2646C9.73082 10.0716 9.9855 9.82168 10.1841 9.52937C10.2845 9.38605 10.3558 9.22434 10.3937 9.05348C10.4316 8.88261 10.4355 8.70595 10.4051 8.53358C10.3748 8.36121 10.3107 8.19652 10.2166 8.04892C10.1226 7.90132 10.0004 7.7737 9.85694 7.67337Z" fill="#003478"/>
<path d="M10.8151 11.365L11.672 10.3437L12.0124 10.6294L11.1555 11.6508L10.8151 11.365ZM11.9573 10.0037L12.8142 8.98277L13.1546 9.26855L12.2977 10.2894L11.9573 10.0037ZM11.496 11.9374L12.3528 10.9165L12.6933 11.2023L11.8364 12.2232L11.496 11.9374ZM12.6391 10.5748L13.4968 9.55388L13.8373 9.8401L12.9795 10.8605L12.6391 10.5748ZM12.1764 12.509L13.0342 11.4881L13.3742 11.7739L12.5168 12.7948L12.1764 12.509ZM13.3191 11.1468L14.1755 10.1245L14.5164 10.4103L13.66 11.4325L13.3191 11.1468ZM13.3208 4.85255L13.6613 4.56677L14.5191 5.58855L14.1782 5.87432L13.3208 4.85255ZM12.1777 3.48988L12.5182 3.2041L13.3751 4.22588L13.0342 4.51121L12.1777 3.48988ZM11.4964 4.06232L11.8368 3.77655L13.8368 6.15966L13.4964 6.44544L11.4964 4.06232ZM10.8155 4.63299L11.1564 4.34721L12.0128 5.36855L11.6724 5.65388L10.8155 4.63299ZM11.9577 5.99521L12.2982 5.70943L13.156 6.73032L12.816 7.0161L11.9577 5.99521ZM2.8444 9.2681L3.18484 8.98232L5.1844 11.3659L4.84351 11.6517L2.8444 9.2681ZM2.1644 9.83966L2.5044 9.55432L3.36173 10.5757L3.02084 10.8614L2.1644 9.83966ZM3.30529 11.2023L3.64573 10.9165L4.50351 11.9374L4.16307 12.2232L3.30529 11.2023ZM1.48262 10.4108L1.82307 10.125L3.82307 12.5081L3.48218 12.7939L1.48262 10.4108ZM1.48218 5.58766L3.48129 3.20455L3.82218 3.48988L1.82218 5.87343L1.48218 5.58766ZM2.16307 6.15966L4.16307 3.7761L4.50351 4.06188L2.50351 6.44499L2.16307 6.15966ZM2.8444 6.73077L4.8444 4.34721L5.18484 4.63299L3.18484 7.01655L2.8444 6.73077Z" fill="#292F33"/>
</svg>
