<svg width="16" height="16" viewBox="0 0 16 16" fill="none" xmlns="http://www.w3.org/2000/svg">
<g clip-path="url(#clip0_548_6361)">
<path d="M0 12.0004C0 12.4719 0.187301 12.9241 0.520699 13.2575C0.854097 13.5909 1.30628 13.7782 1.77778 13.7782H14.2222C14.6937 13.7782 15.1459 13.5909 15.4793 13.2575C15.8127 12.9241 16 12.4719 16 12.0004V10.2227H0V12.0004Z" fill="#FFCD05"/>
<path d="M0 6.22266H16V10.2227H0V6.22266Z" fill="#ED1F24"/>
<path d="M14.2222 2.22266H1.77778C1.30628 2.22266 0.854097 2.40996 0.520699 2.74336C0.187301 3.07675 0 3.52894 0 4.00043L0 6.22266H16V4.00043C16 3.52894 15.8127 3.07675 15.4793 2.74336C15.1459 2.40996 14.6937 2.22266 14.2222 2.22266Z" fill="#141414"/>
</g>
<defs>
<clipPath id="clip0_548_6361">
<rect width="16" height="16" fill="white"/>
</clipPath>
</defs>
</svg>
