<svg width="16" height="16" viewBox="0 0 16 16" fill="none" xmlns="http://www.w3.org/2000/svg">
<g clip-path="url(#clip0_548_6309)">
<path d="M14.2222 2.22266H1.77778C1.30628 2.22266 0.854097 2.40996 0.520699 2.74336C0.187301 3.07675 0 3.52894 0 4.00043L0 6.22266H16V4.00043C16 3.52894 15.8127 3.07675 15.4793 2.74336C15.1459 2.40996 14.6937 2.22266 14.2222 2.22266Z" fill="#CC212D"/>
<path d="M6.85467 9.77821H9.15911L8.00711 8.94088L6.85467 9.77821ZM8.44889 7.58221H9.87778L8.72178 8.42177L9.16222 9.77821H16V6.22266H8.00711L8.44889 7.58221ZM7.29244 8.42177L6.13644 7.58221H7.56533L8.00711 6.22266H0V9.77821H6.85156L7.29244 8.42177Z" fill="#FBD116"/>
<path d="M9.16311 9.78001L9.15911 9.77734H6.85422L6.85022 9.78001L6.85156 9.77734H0V11.9996C0 12.4711 0.187301 12.9232 0.520699 13.2566C0.854097 13.59 1.30628 13.7773 1.77778 13.7773H14.2222C14.6937 13.7773 15.1459 13.59 15.4793 13.2566C15.8127 12.9232 16 12.4711 16 11.9996V9.77734H9.16222L9.16311 9.78001Z" fill="#288541"/>
<path d="M6.13647 7.58221L7.29247 8.42177L6.85159 9.77821L6.8507 9.78088L6.8547 9.77821L8.00714 8.94088L9.15914 9.77821L9.16314 9.78088L9.16225 9.77821L8.72181 8.42177L9.87781 7.58221H8.44892L8.00714 6.22266L7.56536 7.58221H6.13647Z" fill="black"/>
</g>
<defs>
<clipPath id="clip0_548_6309">
<rect width="16" height="16" fill="white"/>
</clipPath>
</defs>
</svg>
