<svg width="16" height="16" viewBox="0 0 16 16" fill="none" xmlns="http://www.w3.org/2000/svg">
<g clip-path="url(#clip0_548_6353)">
<path d="M15.7533 3.11155C15.4453 2.58221 14.8787 2.22266 14.2222 2.22266H8V3.11155H15.7533ZM0 11.1115H16V12.0004H0V11.1115ZM8 7.55599H16V8.44488H8V7.55599ZM8 5.77821H16V6.6671H8V5.77821ZM0 9.33377H16V10.2227H0V9.33377ZM1.77778 13.7782H14.2222C14.8787 13.7782 15.4453 13.4187 15.7533 12.8893H0.246667C0.554667 13.4187 1.12133 13.7782 1.77778 13.7782ZM8 4.00043H16V4.88932H8V4.00043Z" fill="#B22334"/>
<path d="M0.0302222 12.302C0.0376296 12.3435 0.0463704 12.3845 0.0564444 12.4251C0.0682963 12.4696 0.0819259 12.5134 0.0973333 12.5567C0.136889 12.6718 0.184889 12.7829 0.245333 12.8869L0.246667 12.8891H15.7533L15.7542 12.8873C15.8145 12.7828 15.8639 12.6725 15.9018 12.558C15.9306 12.4745 15.9532 12.3889 15.9693 12.302C15.9876 12.2042 16 12.1038 16 12.0002H0C0 12.1038 0.0124444 12.2038 0.0302222 12.302ZM0 10.2224H16V11.1113H0V10.2224ZM0 8.44466V9.33355H16V8.44466H8H0ZM8 6.66688H16V7.55577H8V6.66688ZM8 4.88911H16V5.77799H8V4.88911ZM0.0568889 3.57533C0.068 3.52999 0.0835556 3.48688 0.0977778 3.44333C0.0824426 3.48678 0.0688026 3.53081 0.0568889 3.57533ZM8 4.00022H16C16 3.89666 15.9876 3.79622 15.9693 3.69799C15.9538 3.61093 15.931 3.5253 15.9013 3.44199C15.8634 3.32702 15.8138 3.21622 15.7533 3.11133H8V4.00022Z" fill="#EEEEEE"/>
<path d="M8 2.22266H1.77778C1.30628 2.22266 0.854097 2.40996 0.520699 2.74336C0.187301 3.07675 0 3.52894 0 4.00043L0 8.44488H8V2.22266Z" fill="#3C3B6E"/>
<path d="M0.889282 3.43399L1.16395 3.63355L1.05906 3.95577L1.33328 3.75666L1.60795 3.95577L1.50306 3.63355L1.77773 3.43399H1.43817L1.33328 3.11133L1.22884 3.43399H0.889282ZM1.77817 4.32288L2.05284 4.52244L1.94795 4.84466L2.22217 4.64555L2.49684 4.84466L2.39195 4.52244L2.66662 4.32288H2.32706L2.22217 4.00022L2.11773 4.32288H1.77817ZM3.55595 4.32288L3.83062 4.52244L3.72573 4.84466L3.99995 4.64555L4.27462 4.84466L4.16973 4.52244L4.44439 4.32288H4.10484L3.99995 4.00022L3.8955 4.32288H3.55595ZM5.33373 4.32288L5.60839 4.52244L5.5035 4.84466L5.77773 4.64555L6.05239 4.84466L5.9475 4.52244L6.22217 4.32288H5.88262L5.77773 4.00022L5.67328 4.32288H5.33373ZM1.77817 6.10066L2.05284 6.30022L1.94795 6.62244L2.22217 6.42333L2.49684 6.62244L2.39195 6.30022L2.66662 6.10066H2.32706L2.22217 5.77799L2.11773 6.10066H1.77817ZM3.55595 6.10066L3.83062 6.30022L3.72573 6.62244L3.99995 6.42333L4.27462 6.62244L4.16973 6.30022L4.44439 6.10066H4.10484L3.99995 5.77799L3.8955 6.10066H3.55595ZM5.33373 6.10066L5.60839 6.30022L5.5035 6.62244L5.77773 6.42333L6.05239 6.62244L5.9475 6.30022L6.22217 6.10066H5.88262L5.77773 5.77799L5.67328 6.10066H5.33373ZM2.66706 3.43399L2.94173 3.63355L2.83684 3.95577L3.11106 3.75666L3.38573 3.95577L3.28084 3.63355L3.5555 3.43399H3.21595L3.11106 3.11133L3.00662 3.43399H2.66706ZM4.44484 3.43399L4.7195 3.63355L4.61462 3.95577L4.88884 3.75666L5.1635 3.95577L5.05862 3.63355L5.33328 3.43399H4.99373L4.88884 3.11133L4.78439 3.43399H4.44484ZM6.22262 3.43399L6.49728 3.63355L6.39239 3.95577L6.66662 3.75666L6.94128 3.95577L6.83639 3.63355L7.11106 3.43399H6.7715L6.66662 3.11133L6.56217 3.43399H6.22262ZM0.889282 5.21177L1.16395 5.41133L1.05906 5.73355L1.33328 5.53444L1.60795 5.73355L1.50306 5.41133L1.77773 5.21177H1.43817L1.33328 4.88911L1.22884 5.21177H0.889282ZM2.83684 5.73355L3.11106 5.53444L3.38573 5.73355L3.28084 5.41133L3.5555 5.21177H3.21595L3.11106 4.88911L3.00662 5.21177H2.66706L2.94173 5.41133L2.83684 5.73355ZM4.44484 5.21177L4.7195 5.41133L4.61462 5.73355L4.88884 5.53444L5.1635 5.73355L5.05862 5.41133L5.33328 5.21177H4.99373L4.88884 4.88911L4.78439 5.21177H4.44484ZM6.22262 5.21177L6.49728 5.41133L6.39239 5.73355L6.66662 5.53444L6.94128 5.73355L6.83639 5.41133L7.11106 5.21177H6.7715L6.66662 4.88911L6.56217 5.21177H6.22262ZM0.889282 6.98955L1.16395 7.18911L1.05906 7.51133L1.33328 7.31222L1.60795 7.51133L1.50306 7.18911L1.77773 6.98955H1.43817L1.33328 6.66688L1.22884 6.98955H0.889282ZM2.83684 7.51133L3.11106 7.31222L3.38573 7.51133L3.28084 7.18911L3.5555 6.98955H3.21595L3.11106 6.66688L3.00662 6.98955H2.66706L2.94173 7.18911L2.83684 7.51133ZM4.44484 6.98955L4.7195 7.18911L4.61462 7.51133L4.88884 7.31222L5.1635 7.51133L5.05862 7.18911L5.33328 6.98955H4.99373L4.88884 6.66688L4.78439 6.98955H4.44484ZM6.22262 6.98955L6.49728 7.18911L6.39239 7.51133L6.66662 7.31222L6.94128 7.51133L6.83639 7.18911L7.11106 6.98955H6.7715L6.66662 6.66688L6.56217 6.98955H6.22262Z" fill="white"/>
</g>
<defs>
<clipPath id="clip0_548_6353">
<rect width="16" height="16" fill="white"/>
</clipPath>
</defs>
</svg>
