<svg width="24" height="18" viewBox="0 0 24 18" fill="none" xmlns="http://www.w3.org/2000/svg">
<path d="M22.5 18.0039C22.5 18.0039 24 18.0039 24 16.5039C24 15.0039 22.5 10.5039 16.5 10.5039C10.5 10.5039 9 15.0039 9 16.5039C9 18.0039 10.5 18.0039 10.5 18.0039H22.5ZM10.533 16.5039L10.5 16.4979C10.5015 16.1019 10.7505 14.9529 11.64 13.9179C12.468 12.9474 13.923 12.0039 16.5 12.0039C19.0755 12.0039 20.5305 12.9489 21.36 13.9179C22.2495 14.9529 22.497 16.1034 22.5 16.4979L22.488 16.5009L22.467 16.5039H10.533ZM16.5 7.50391C17.2956 7.50391 18.0587 7.18784 18.6213 6.62523C19.1839 6.06262 19.5 5.29956 19.5 4.50391C19.5 3.70826 19.1839 2.94519 18.6213 2.38259C18.0587 1.81998 17.2956 1.50391 16.5 1.50391C15.7044 1.50391 14.9413 1.81998 14.3787 2.38259C13.8161 2.94519 13.5 3.70826 13.5 4.50391C13.5 5.29956 13.8161 6.06262 14.3787 6.62523C14.9413 7.18784 15.7044 7.50391 16.5 7.50391ZM21 4.50391C21 5.09485 20.8836 5.68002 20.6575 6.22598C20.4313 6.77195 20.0998 7.26802 19.682 7.68589C19.2641 8.10375 18.768 8.43522 18.2221 8.66136C17.6761 8.88751 17.0909 9.00391 16.5 9.00391C15.9091 9.00391 15.3239 8.88751 14.7779 8.66136C14.232 8.43522 13.7359 8.10375 13.318 7.68589C12.9002 7.26802 12.5687 6.77195 12.3425 6.22598C12.1164 5.68002 12 5.09485 12 4.50391C12 3.31043 12.4741 2.16584 13.318 1.32193C14.1619 0.478012 15.3065 0.00390625 16.5 0.00390625C17.6935 0.00390625 18.8381 0.478012 19.682 1.32193C20.5259 2.16584 21 3.31043 21 4.50391ZM10.404 10.9239C9.80364 10.7363 9.18526 10.6121 8.559 10.5534C8.20706 10.5191 7.85361 10.5026 7.5 10.5039C1.5 10.5039 0 15.0039 0 16.5039C0 17.5039 0.5 18.0039 1.5 18.0039H7.824C7.60174 17.5356 7.49084 17.0222 7.5 16.5039C7.5 14.9889 8.0655 13.4409 9.135 12.1479C9.4995 11.7069 9.924 11.2944 10.404 10.9239ZM7.38 12.0039C6.49279 13.3381 6.01327 14.9017 6 16.5039H1.5C1.5 16.1139 1.746 14.9589 2.64 13.9179C3.4575 12.9639 4.878 12.0339 7.38 12.0054V12.0039ZM2.25 5.25391C2.25 4.06043 2.72411 2.91584 3.56802 2.07193C4.41193 1.22801 5.55653 0.753906 6.75 0.753906C7.94347 0.753906 9.08807 1.22801 9.93198 2.07193C10.7759 2.91584 11.25 4.06043 11.25 5.25391C11.25 6.44738 10.7759 7.59197 9.93198 8.43589C9.08807 9.2798 7.94347 9.75391 6.75 9.75391C5.55653 9.75391 4.41193 9.2798 3.56802 8.43589C2.72411 7.59197 2.25 6.44738 2.25 5.25391ZM6.75 2.25391C5.95435 2.25391 5.19129 2.56998 4.62868 3.13259C4.06607 3.69519 3.75 4.45826 3.75 5.25391C3.75 6.04956 4.06607 6.81262 4.62868 7.37523C5.19129 7.93784 5.95435 8.25391 6.75 8.25391C7.54565 8.25391 8.30871 7.93784 8.87132 7.37523C9.43393 6.81262 9.75 6.04956 9.75 5.25391C9.75 4.45826 9.43393 3.69519 8.87132 3.13259C8.30871 2.56998 7.54565 2.25391 6.75 2.25391Z" fill="#FCFCFD"/>
</svg>
