<svg width="13" height="13" viewBox="0 0 13 13" fill="none" xmlns="http://www.w3.org/2000/svg">
<path d="M11.5 0H3.5C3.23478 0 2.98043 0.105357 2.79289 0.292893C2.60536 0.48043 2.5 0.734784 2.5 1V2.5H1.5C1.23478 2.5 0.98043 2.60536 0.792893 2.79289C0.605357 2.98043 0.5 3.23478 0.5 3.5V9.5C0.5 9.76522 0.605357 10.0196 0.792893 10.2071C0.98043 10.3946 1.23478 10.5 1.5 10.5H2.5V12C2.5 12.2652 2.60536 12.5196 2.79289 12.7071C2.98043 12.8946 3.23478 13 3.5 13H11.5C11.7652 13 12.0196 12.8946 12.2071 12.7071C12.3946 12.5196 12.5 12.2652 12.5 12V1C12.5 0.734784 12.3946 0.48043 12.2071 0.292893C12.0196 0.105357 11.7652 0 11.5 0ZM9 5H11.5V8H9V5ZM11.5 4H9V3.5C9 3.23478 8.89464 2.98043 8.70711 2.79289C8.51957 2.60536 8.26522 2.5 8 2.5V1H11.5V4ZM3.5 1H7V2.5H3.5V1ZM1.5 3.5H8V8.48938C8 8.49312 8 8.49625 8 8.5C8 8.50375 8 8.50688 8 8.51062V9.5H1.5V3.5ZM3.5 10.5H7V12H3.5V10.5ZM8 12V10.5C8.26522 10.5 8.51957 10.3946 8.70711 10.2071C8.89464 10.0196 9 9.76522 9 9.5V9H11.5V12H8ZM3.11562 7.68L4.09937 6.5L3.11562 5.32C3.03076 5.21806 2.98986 5.08658 3.00193 4.95448C3.014 4.82238 3.07806 4.70049 3.18 4.61562C3.28194 4.53076 3.41342 4.48986 3.54552 4.50193C3.67762 4.514 3.79951 4.57806 3.88438 4.68L4.75 5.71875L5.61562 4.68C5.65765 4.62952 5.7092 4.58782 5.76734 4.55726C5.82548 4.52671 5.88907 4.50791 5.95448 4.50193C6.01989 4.49595 6.08583 4.50292 6.14855 4.52243C6.21126 4.54193 6.26952 4.5736 6.32 4.61562C6.37048 4.65765 6.41218 4.7092 6.44274 4.76734C6.47329 4.82548 6.49209 4.88907 6.49807 4.95448C6.50405 5.01989 6.49708 5.08583 6.47757 5.14855C6.45807 5.21126 6.4264 5.26952 6.38438 5.32L5.40063 6.5L6.38438 7.68C6.46924 7.78194 6.51014 7.91342 6.49807 8.04552C6.486 8.17762 6.42194 8.29951 6.32 8.38437C6.21806 8.46924 6.08658 8.51014 5.95448 8.49807C5.82238 8.486 5.70049 8.42194 5.61562 8.32L4.75 7.28125L3.88438 8.32C3.79951 8.42194 3.67762 8.486 3.54552 8.49807C3.41342 8.51014 3.28194 8.46924 3.18 8.38437C3.07806 8.29951 3.014 8.17762 3.00193 8.04552C2.98986 7.91342 3.03076 7.78194 3.11562 7.68Z" fill="#9F1AB1"/>
</svg>
